:FULLY-SPECIFIED
:FORCE-ALL-JOINTS-BE-3DOF
:DEGREES
65
root 8.87051 16.0706 -27.6563 5.57574 -9.5779 -1.65879
lfemur -29.8852 5.62628 -21.0188
ltibia 32.3723 0 0
lfoot -7.6703 8.91629 0
ltoes -1.35211 0 0
rfemur -0.344462 2.60131 22.9263
rtibia 36.4853 0 0
rfoot -10.5429 -6.75308 0
rtoes -19.2108 0 0
lowerback -6.5801 0.0602635 -0.89842
upperback -1.38713 -0.0509352 3.30325
thorax 2.30042 -0.0215113 3.97694
lowerneck -22.1902 -4.15817 -11.8653
upperneck 18.1055 -4.88216 13.056
head 10.0723 -1.60821 5.91409
lclavicle -2.5045e-14 -2.08679e-14 0
lhumerus -34.4497 -9.77188 88.7813
lradius 24.1175 0 0
lwrist 0.0165851 0 0
lhand -1.80515 -20.2266 0
lfingers 7.12502 0 0
lthumb 23.8392 8.08979 0
rclavicle -2.5045e-14 -2.08679e-14 0
rhumerus -44.8405 16.9409 -92.0148
rradius 47.2735 0 0
rwrist -24.0326 0 0
rhand -30.6971 -28.4815 0
rfingers 7.12502 0 0
rthumb -3.99069 -58.4247 0
66
root 8.89568 16.088 -27.5266 5.46215 -9.52331 -1.38347
lfemur -29.0834 5.42956 -21.4631
ltibia 32.2034 0 0
lfoot -8.2185 9.00589 0
ltoes -1.28473 0 0
rfemur -1.8674 2.42853 22.6801
rtibia 38.4916 0 0
rfoot -10.9576 -7.16315 0
rtoes -18.5471 0 0
lowerback -6.44732 -0.0122545 -1.09457
upperback -1.39754 -0.130116 3.25409
thorax 2.22063 -0.0612311 4.02901
lowerneck -22.2215 -4.13602 -11.8408
upperneck 18.2121 -4.84812 12.9829
head 10.1076 -1.59782 5.89195
lclavicle -2.45095e-14 -1.90144e-14 0
lhumerus -33.8897 -9.91191 88.6013
lradius 24.2181 0 0
lwrist 0.0927626 0 0
lhand -2.38308 -20.4125 0
lfingers 7.12502 0 0
lthumb 23.2852 7.97767 0
rclavicle -2.45095e-14 -1.90144e-14 0
rhumerus -44.7489 16.7628 -91.8438
rradius 46.8024 0 0
rwrist -23.8931 0 0
rhand -30.7031 -28.1071 0
rfingers 7.12502 0 0
rthumb -3.99641 -58.0502 0
67
root 8.92085 16.1055 -27.3968 5.35017 -9.46148 -1.10919
lfemur -28.2749 5.23367 -21.9037
ltibia 32.0259 0 0
lfoot -8.76399 9.09081 0
ltoes -1.22184 0 0
rfemur -3.38918 2.26161 22.4311
rtibia 40.4668 0 0
rfoot -11.3707 -7.56951 0
rtoes -17.8896 0 0
lowerback -6.31652 -0.085333 -1.29012
upperback -1.40777 -0.210003 3.20496
thorax 2.14231 -0.101344 4.08063
lowerneck -22.2509 -4.11478 -11.8175
upperneck 18.3178 -4.81532 12.9107
head 10.1424 -1.58807 5.87004
lclavicle -2.3984e-14 -1.71774e-14 0
lhumerus -33.335 -10.0554 88.4262
lradius 24.3244 0 0
lwrist 0.173278 0 0
lhand -2.95927 -20.5981 0
lfingers 7.12502 0 0
lthumb 22.7329 7.86556 0
rclavicle -2.3984e-14 -1.71774e-14 0
rhumerus -44.6583 16.5831 -91.6701
rradius 46.3333 0 0
rwrist -23.7539 0 0
rhand -30.7089 -27.735 0
rfingers 7.12502 0 0
rthumb -4.00209 -57.6779 0
68
root 8.94602 16.1229 -27.2671 5.24019 -9.39236 -0.836716
lfemur -27.4608 5.03918 -22.3392
ltibia 31.8391 0 0
lfoot -9.30467 9.1704 0
ltoes -1.1636 0 0
rfemur -4.90502 2.10149 22.1794
rtibia 42.403 0 0
rfoot -11.7814 -7.97097 0
rtoes -17.2414 0 0
lowerback -6.18837 -0.158825 -1.48454
upperback -1.41775 -0.290448 3.15603
thorax 2.06589 -0.141779 4.13168
lowerneck -22.2781 -4.09456 -11.7953
upperneck 18.4225 -4.78389 12.8393
head 10.1768 -1.57902 5.84841
lclavicle -2.34725e-14 -1.53652e-14 0
lhumerus -32.7876 -10.2027 88.257
lradius 24.4364 0 0
lwrist 0.257992 0 0
lhand -3.53142 -20.7828 0
lfingers 7.12502 0 0
lthumb 22.1844 7.75383 0
rclavicle -2.34725e-14 -1.53652e-14 0
rhumerus -44.5694 16.4023 -91.4944
rradius 45.8673 0 0
rwrist -23.6151 0 0
rhand -30.7146 -27.3665 0
rfingers 7.12502 0 0
rthumb -4.00759 -57.3093 0
69
root 8.97119 16.1404 -27.1374 5.13261 -9.31592 -0.566828
lfemur -26.6424 4.84671 -22.7682
ltibia 31.6421 0 0
lfoot -9.83846 9.24402 0
ltoes -1.11013 0 0
rfemur -6.41012 1.94908 21.9253
rtibia 44.2923 0 0
rfoot -12.1888 -8.36634 0
rtoes -16.6059 0 0
lowerback -6.06351 -0.232584 -1.67733
upperback -1.42744 -0.371305 3.10748
thorax 1.99179 -0.182466 4.18208
lowerneck -22.3031 -4.07544 -11.7744
upperneck 18.526 -4.75396 12.7688
head 10.2106 -1.57073 5.82708
lclavicle -2.29786e-14 -1.35862e-14 0
lhumerus -32.2494 -10.354 88.0947
lradius 24.5544 0 0
lwrist 0.346769 0 0
lhand -4.09724 -20.9658 0
lfingers 7.12502 0 0
lthumb 21.642 7.64286 0
rclavicle -2.29786e-14 -1.35862e-14 0
rhumerus -44.4827 16.2205 -91.3171
rradius 45.4056 0 0
rwrist -23.4769 0 0
rhand -30.72 -27.003 0
rfingers 7.12502 0 0
rthumb -4.0128 -56.9456 0
70
root 8.99636 16.1578 -27.0076 5.02783 -9.23215 -0.300305
lfemur -25.8209 4.65683 -23.1893
ltibia 31.434 0 0
lfoot -10.3633 9.311 0
ltoes -1.06158 0 0
rfemur -7.89966 1.80532 21.6688
rtibia 46.1267 0 0
rfoot -12.5921 -8.75442 0
rtoes -15.9862 0 0
lowerback -5.94261 -0.306463 -1.86794
upperback -1.43678 -0.452425 3.05947
thorax 1.92042 -0.223335 4.2317
lowerneck -22.3257 -4.05755 -11.7549
upperneck 18.6281 -4.72566 12.6995
head 10.2438 -1.56326 5.80608
lclavicle -2.25063e-14 -1.18486e-14 0
lhumerus -31.7225 -10.5094 87.9403
lradius 24.6784 0 0
lwrist 0.439469 0 0
lhand -4.65445 -21.1465 0
lfingers 7.12502 0 0
lthumb 21.1079 7.53304 0
rclavicle -2.25063e-14 -1.18486e-14 0
rhumerus -44.399 16.0381 -91.1389
rradius 44.9494 0 0
rwrist -23.3396 0 0
rhand -30.725 -26.6458 0
rfingers 7.12502 0 0
rthumb -4.01758 -56.5882 0
71
root 9.02154 16.1753 -26.8779 4.92624 -9.14099 -0.0379279
lfemur -24.9973 4.47014 -23.6011
ltibia 31.2142 0 0
lfoot -10.877 9.3707 0
ltoes -1.01808 0 0
rfemur -9.36885 1.67114 21.4101
rtibia 47.8983 0 0
rfoot -12.9905 -9.13402 0
rtoes -15.3857 0 0
lowerback -5.82631 -0.380316 -2.05585
upperback -1.44572 -0.53366 3.01219
thorax 1.85222 -0.264314 4.28044
lowerneck -22.3459 -4.04096 -11.7369
upperneck 18.7286 -4.69913 12.6314
head 10.2764 -1.55667 5.78543
lclavicle -2.20592e-14 -1.01608e-14 0
lhumerus -31.2088 -10.6692 87.795
lradius 24.8084 0 0
lwrist 0.535955 0 0
lhand -5.20077 -21.3243 0
lfingers 7.12502 0 0
lthumb 20.5842 7.42476 0
rclavicle -2.20592e-14 -1.01608e-14 0
rhumerus -44.3187 15.8555 -90.9604
rradius 44.4997 0 0
rwrist -23.2034 0 0
rhand -30.7294 -26.2962 0
rfingers 7.12502 0 0
rthumb -4.02182 -56.2386 0
72
root 9.04671 16.1927 -26.7482 4.82826 -9.04244 0.219526
lfemur -24.1728 4.28723 -24.0023
ltibia 30.9817 0 0
lfoot -11.3775 9.42246 0
ltoes -0.979772 0 0
rfemur -10.8129 1.54745 21.1493
rtibia 49.5992 0 0
rfoot -13.383 -9.50394 0
rtoes -14.8076 0 0
lowerback -5.71528 -0.453994 -2.24055
upperback -1.45421 -0.614865 2.96579
thorax 1.7876 -0.305334 4.3282
lowerneck -22.3635 -4.0258 -11.7205
upperneck 18.8273 -4.6745 12.5646
head 10.3082 -1.55101 5.76517
lclavicle -2.16413e-14 -8.53108e-15 0
lhumerus -30.7104 -10.8337 87.6598
lradius 24.9447 0 0
lwrist 0.63609 0 0
lhand -5.7339 -21.4985 0
lfingers 7.12502 0 0
lthumb 20.0731 7.31838 0
rclavicle -2.16413e-14 -8.53108e-15 0
rhumerus -44.2425 15.6729 -90.7822
rradius 44.0576 0 0
rwrist -23.0684 0 0
rhand -30.7331 -25.9558 0
rfingers 7.12502 0 0
rthumb -4.02538 -55.898 0
73
root 9.07188 16.2102 -26.6184 4.73426 -8.93645 0.471276
lfemur -23.3487 4.1087 -24.3914
ltibia 30.7357 0 0
lfoot -11.8628 9.46563 0
ltoes -0.946801 0 0
rfemur -12.227 1.43519 20.8865
rtibia 51.2214 0 0
rfoot -13.7688 -9.86299 0
rtoes -14.2551 0 0
lowerback -5.61015 -0.527352 -2.4215
upperback -1.4622 -0.69589 2.92047
thorax 1.727 -0.346324 4.37488
lowerneck -22.3785 -4.01215 -11.7058
upperneck 18.9241 -4.6519 12.4992
head 10.3393 -1.54635 5.74533
lclavicle -2.12563e-14 -6.96779e-15 0
lhumerus -30.2292 -11.0031 87.5357
lradius 25.0872 0 0
lwrist 0.739734 0 0
lhand -6.25155 -21.6683 0
lfingers 7.12502 0 0
lthumb 19.5769 7.2143 0
rclavicle -2.12563e-14 -6.96779e-15 0
rhumerus -44.171 15.4908 -90.6047
rradius 43.6243 0 0
rwrist -22.935 0 0
rhand -30.7359 -25.6258 0
rfingers 7.12502 0 0
rthumb -4.02813 -55.5679 0
74
root 9.09705 16.2276 -26.4887 4.64465 -8.82299 0.716545
lfemur -22.5261 3.93513 -24.7671
ltibia 30.4755 0 0
lfoot -12.3307 9.49955 0
ltoes -0.919301 0 0
rfemur -13.6063 1.33529 20.6218
rtibia 52.757 0 0
rfoot -14.1471 -10.21 0
rtoes -13.7316 0 0
lowerback -5.5116 -0.600243 -2.59818
upperback -1.46964 -0.776588 2.87638
thorax 1.67082 -0.387212 4.42036
lowerneck -22.3907 -4.00012 -11.6929
upperneck 19.0188 -4.63147 12.4353
head 10.3695 -1.54274 5.72593
lclavicle -2.09079e-14 -5.47924e-15 0
lhumerus -29.7672 -11.1775 87.4239
lradius 25.2361 0 0
lwrist 0.846751 0 0
lhand -6.75145 -21.8332 0
lfingers 7.12502 0 0
lthumb 19.0976 7.1129 0
rclavicle -2.09079e-14 -5.47924e-15 0
rhumerus -44.1049 15.3095 -90.4287
rradius 43.2009 0 0
rwrist -22.8032 0 0
rhand -30.7378 -25.3077 0
rfingers 7.12502 0 0
rthumb -4.02996 -55.2497 0
75
root 9.12222 16.2451 -26.359 4.55984 -8.70204 0.954553
lfemur -21.7061 3.76713 -25.128
ltibia 30.2003 0 0
lfoot -12.7791 9.52357 0
ltoes -0.897413 0 0
rfemur -14.9461 1.24867 20.3554
rtibia 54.1981 0 0
rfoot -14.5171 -10.5437 0
rtoes -13.2403 0 0
lowerback -5.42027 -0.67252 -2.77007
upperback -1.47647 -0.856812 2.83371
thorax 1.61949 -0.42793 4.46454
lowerneck -22.3999 -3.98981 -11.682
upperneck 19.1112 -4.61332 12.3731
head 10.3988 -1.54024 5.70701
lclavicle -2.06001e-14 -4.07377e-15 0
lhumerus -29.3263 -11.3573 87.3253
lradius 25.3914 0 0
lwrist 0.957002 0 0
lhand -7.2313 -21.9924 0
lfingers 7.12502 0 0
lthumb 18.6376 7.01455 0
rclavicle -2.06001e-14 -4.07377e-15 0
rhumerus -44.0448 15.1292 -90.2547
rradius 42.7885 0 0
rwrist -22.6734 0 0
rhand -30.7386 -25.0027 0
rfingers 7.12502 0 0
rthumb -4.03073 -54.9447 0
76
root 9.14739 16.2625 -26.2292 4.48021 -8.57356 1.18452
lfemur -20.8899 3.60528 -25.4727
ltibia 29.9092 0 0
lfoot -13.2061 9.53704 0
ltoes -0.881275 0 0
rfemur -16.2415 1.17626 20.0873
rtibia 55.5367 0 0
rfoot -14.8778 -10.863 0
rtoes -12.7845 0 0
lowerback -5.33682 -0.744035 -2.93663
upperback -1.48264 -0.936414 2.79263
thorax 1.57344 -0.468406 4.50732
lowerneck -22.4062 -3.98132 -11.673
upperneck 19.2011 -4.59761 12.3125
head 10.4272 -1.53891 5.68859
lclavicle -2.03366e-14 -2.75969e-15 0
lhumerus -28.9087 -11.5426 87.241
lradius 25.5533 0 0
lwrist 1.07035 0 0
lhand -7.68881 -22.1453 0
lfingers 7.12502 0 0
lthumb 18.1991 6.91964 0
rclavicle -2.03366e-14 -2.75969e-15 0
rhumerus -43.9913 14.9504 -90.0833
rradius 42.3882 0 0
rwrist -22.5457 0 0
rhand -30.7382 -24.7123 0
rfingers 7.12502 0 0
rthumb -4.03032 -54.6542 0
77
root 9.17256 16.28 -26.0995 4.40616 -8.43752 1.40567
lfemur -20.0787 3.45017 -25.7998
ltibia 29.6013 0 0
lfoot -13.6093 9.5393 0
ltoes -0.871027 0 0
rfemur -17.4878 1.11898 19.8178
rtibia 56.765 0 0
rfoot -15.2285 -11.1666 0
rtoes -12.3674 0 0
lowerback -5.2619 -0.814643 -3.09735
upperback -1.48809 -1.01525 2.7533
thorax 1.53309 -0.508569 4.54858
lowerneck -22.4092 -3.97475 -11.6662
upperneck 19.2884 -4.58445 12.2539
head 10.4545 -1.53881 5.6707
lclavicle -2.01212e-14 -1.54534e-15 0
lhumerus -28.5163 -11.7337 87.1721
lradius 25.7219 0 0
lwrist 1.18666 0 0
lhand -8.1217 -22.2912 0
lfingers 7.12502 0 0
lthumb 17.7841 6.82856 0
rclavicle -2.01212e-14 -1.54534e-15 0
rhumerus -43.9449 14.7734 -89.915
rradius 42.0011 0 0
rwrist -22.4203 0 0
rhand -30.7364 -24.4379 0
rfingers 7.12502 0 0
rthumb -4.0286 -54.3798 0
78
root 9.19773 16.2974 -25.9698 4.3381 -8.29389 1.61722
lfemur -19.2737 3.3024 -26.108
ltibia 29.276 0 0
lfoot -13.9869 9.52971 0
ltoes -0.866808 0 0
rfemur -18.6801 1.07777 19.547
rtibia 57.875 0 0
rfoot -15.5683 -11.4534 0
rtoes -11.9923 0 0
lowerback -5.19617 -0.884196 -3.25171
upperback -1.49279 -1.09316 2.71591
thorax 1.49886 -0.54835 4.58823
lowerneck -22.4091 -3.9702 -11.6616
upperneck 19.3727 -4.57398 12.1971
head 10.4807 -1.53999 5.65338
lclavicle -1.99578e-14 -4.39025e-16 0
lhumerus -28.151 -11.9308 87.1196
lradius 25.8972 0 0
lwrist 1.30578 0 0
lhand -8.52769 -22.4295 0
lfingers 7.12502 0 0
lthumb 17.3949 6.74168 0
rclavicle -1.99578e-14 -4.39025e-16 0
rhumerus -43.9064 14.5984 -89.7505
rradius 41.6284 0 0
rwrist -22.2976 0 0
rhand -30.7332 -24.1808 0
rfingers 7.12502 0 0
rthumb -4.02545 -54.1227 0
